<svg width="15" height="15" viewBox="0 0 15 15" fill="none" xmlns="http://www.w3.org/2000/svg">
<path d="M6.03681 0C2.71263 0 0 2.71263 0 6.03681C0 9.36098 2.71263 12.0736 6.03681 12.0736C7.39952 12.0736 8.65508 11.6127 9.66751 10.8458L13.5666 14.744C13.6433 14.8239 13.7352 14.8877 13.8369 14.9317C13.9386 14.9756 14.048 14.9988 14.1588 15C14.2696 15.0011 14.3794 14.9801 14.482 14.9382C14.5846 14.8963 14.6778 14.8344 14.7561 14.7561C14.8344 14.6778 14.8963 14.5846 14.9382 14.482C14.9801 14.3794 15.0011 14.2696 15 14.1588C14.9988 14.048 14.9756 13.9386 14.9317 13.8369C14.8877 13.7352 14.8239 13.6433 14.744 13.5665L10.8458 9.66751C11.6127 8.65508 12.0736 7.39952 12.0736 6.03681C12.0736 2.71263 9.36098 0 6.03681 0ZM6.03681 1.66533C8.46097 1.66533 10.4083 3.61264 10.4083 6.03681C10.4083 7.20075 9.95618 8.25194 9.22109 9.03325C9.14954 9.08505 9.08668 9.14791 9.03488 9.21946C8.2534 9.95548 7.20158 10.4083 6.03681 10.4083C3.61264 10.4083 1.66533 8.46097 1.66533 6.03681C1.66533 3.61264 3.61264 1.66533 6.03681 1.66533Z" fill="black"/>
</svg>
